<?xml version="1.0" encoding="utf-8"?>
<!-- Generator: Adobe Illustrator 24.1.2, SVG Export Plug-In . SVG Version: 6.00 Build 0)  -->
<svg version="1.1" id="Layer_1" xmlns="http://www.w3.org/2000/svg" xmlns:xlink="http://www.w3.org/1999/xlink" x="0px" y="0px"
	 viewBox="0 0 981.2 378.1" style="enable-background:new 0 0 981.2 378.1;" xml:space="preserve">
<style type="text/css">
	.st0{fill:#FFFFFF;}
	.st1{fill:#00FFFF;}
	.st2{fill:#1B1464;}
	.st3{fill:#B3B3B3;}
	.st4{font-family:'HiraKakuStd-W8-83pv-RKSJ-H';}
	.st5{font-size:304.69px;}
	.st6{fill:none;stroke:#1B1464;stroke-width:18;stroke-miterlimit:10;}
	.st7{font-family:'Phosphate-Inline';}
	.st8{font-size:292.55px;}
</style>
<path class="st0" d="M353.4,336.3c-0.6,1.3-1.3,2.5-2,3.7L353.4,336.3z"/>
<path d="M353.4,336.3l-2,3.7C352.2,338.8,352.8,337.5,353.4,336.3z"/>
<path class="st1" d="M253.2,369.1c-7.7,0-14.1-4.9-15.3-5.8c-0.4-0.3-0.7-0.6-1.1-0.9c-0.9-0.8-1.6-1.7-2.3-2.7l-0.4-0.5l-0.4-0.5
	c-17.1-18.2-53.5-77.8-88.4-144.8C112.1,150,85.3,89.2,78.6,62.5l-0.2-0.7l-0.3-0.7c-3.1-6.8-1.5-14.9,4-20l0.3-0.3
	c1.9-1.7,4.1-3,6.5-3.8c3.8-1.4,7.8-2.7,11.7-4c48.6-15.9,99.5-24,150.7-24c46.3,0.1,92.4,6.5,137,19.1l1.2,0.3
	c10,2.8,19.9,6,29.7,9.3c6.8,2.4,11.7,7.9,12.6,14.4c0.1,0.3,0.1,0.6,0.1,0.9c0.1,0.9,0.2,1.8,0.2,2.6c0,0.3-0.1,0.7-0.1,1.1
	c-2.9,21.1-31.6,87.3-68.1,157.4c-20.2,38.8-41.1,75.5-58.8,103.3c-20.8,32.7-30,42-32.9,44.4l-1.6-0.4l-3.4,2.5
	C263.2,367.3,258.3,369,253.2,369.1z"/>
<path class="st2" d="M251.4,18c45.5,0.1,90.7,6.4,134.5,18.7l1,0.3c9.8,2.8,19.7,5.9,29.3,9.2c3.6,1.2,6.2,4.1,6.7,7.2v0.1
	c0,0.2,0,0.3,0.1,0.5c0.1,0.4,0.1,0.8,0.1,1.2v0.3c-2.4,17-26.7,76.8-67.2,154.5c-44.7,85.8-75.2,129.8-86.4,142l-0.9-0.2l-6.8,5.1
	c-2.5,1.9-5.5,3-8.6,3c-3.9,0-8-2.5-9.6-3.8c-0.2-0.1-0.4-0.3-0.6-0.6c-0.4-0.4-0.7-0.8-1-1.2l-0.7-1l-0.9-0.9
	c-13.6-14.5-46.6-65.3-87-142.8c-38-73-60.5-127.6-66-149.3L87,58.9l-0.6-1.4c-1.5-3.4-0.7-7.3,2-9.8l0.2-0.2c1-0.9,2.2-1.5,3.4-1.9
	c3.8-1.3,7.7-2.7,11.5-3.9C151.3,26,201.2,18,251.4,18 M251.4,0C199.3,0,147.5,8.2,97.9,24.5c-4.1,1.3-8.1,2.7-11.9,4.1
	c-3.6,1.2-6.9,3.2-9.7,5.7l-0.2,0.2c-8.3,7.7-10.8,19.8-6.2,30.2c6.7,26.8,32.6,86.2,67.4,153.3c36.7,70.6,72.4,128.3,89.8,146.9
	c1,1.5,2.2,2.9,3.6,4.1c0.5,0.4,1,0.9,1.5,1.3c0.9,0.8,9.6,7.8,21,7.8c7,0,13.8-2.4,19.4-6.6c0.2,0,0.3,0.1,0.5,0.1
	c10.5,0,53.8-67,98.7-153c38.6-73.9,66.1-138.5,69.1-160.4c0.1-0.7,0.2-1.3,0.2-2V56c0-1.3-0.1-2.7-0.2-4c0-0.4-0.1-0.8-0.1-1.2
	c-1.5-10-8.8-18.2-18.6-21.6c-9.5-3.3-20-6.6-31.4-9.8l0,0C345.4,6.6,298.5,0.1,251.4,0z"/>
<text transform="matrix(1.01 0 0 1 9 295.7598)" class="st3 st4 st5">CT</text>
<text transform="matrix(1.01 0 0 1 9 295.7598)" class="st6 st4 st5">CT</text>
<text transform="matrix(0.55 0 0 1 536.6299 281.25)" class="st7 st8">M</text>
<text transform="matrix(0.55 0 0 1 660.3633 281.25)" class="st7 st8">U</text>
<text transform="matrix(0.55 0 0 1 759.1602 281.25)" class="st7 st8">SIC</text>
</svg>
